<?xml version="1.0" encoding="utf-8"?>
<!-- Generator: Adobe Illustrator 25.4.1, SVG Export Plug-In . SVG Version: 6.00 Build 0)  -->
<svg version="1.1" id="Layer_1" xmlns="http://www.w3.org/2000/svg" xmlns:xlink="http://www.w3.org/1999/xlink" x="0px" y="0px"
	 viewBox="0 0 200 47.7" style="enable-background:new 0 0 200 47.7;" xml:space="preserve">
<style type="text/css">
	.st0{fill:#00ACED;}
</style>
<g>
	<path class="st0" d="M69.1,46.7c-2.2,0.3-4.6,0.5-7.1,0.7c-2.6,0.2-4.9,0.3-7,0.3c-5.2,0-9.3-0.8-12-2.5c-2.8-1.7-4.2-4.3-4.2-8.1
		c0-3.3,1.2-5.8,3.6-7.6c2.4-1.8,6.3-2.7,11.6-2.7c1.2,0,2.6,0,4.1,0.1c1.5,0.1,2.8,0.2,3.7,0.3c0-2.6-0.8-4.5-2.4-5.6
		c-1.6-1.2-3.9-1.8-7.1-1.8c-2,0-3.8,0.2-5.4,0.6c-1.6,0.4-2.8,1-3.5,1.6c-0.5-0.3-0.9-0.8-1.2-1.4c-0.3-0.6-0.5-1.3-0.5-1.9
		c0-1.4,0.9-2.6,2.7-3.4c1.8-0.8,4.4-1.3,7.9-1.3c5.5,0,9.7,1.1,12.6,3.4c2.8,2.3,4.3,5.6,4.3,10.1V46.7z M48.2,41.2
		c1.4,0.8,3.7,1.2,6.8,1.2c1.3,0,2.6-0.1,3.9-0.2c1.3-0.1,2.3-0.2,3-0.4v-9.3c-0.9-0.2-2.1-0.4-3.6-0.5c-1.5-0.1-2.8-0.2-4-0.2
		c-3.1,0-5.2,0.5-6.4,1.4c-1.2,0.9-1.8,2.3-1.8,4C46,39.1,46.7,40.4,48.2,41.2z"/>
	<path class="st0" d="M75.8,3.4c0-1.1,0.4-1.9,1.1-2.5C77.6,0.3,78.5,0,79.7,0c0.6,0,1.2,0.1,1.8,0.2c0.6,0.1,1.1,0.3,1.5,0.5v18.2
		c1.2-1.5,2.7-2.7,4.5-3.6c1.8-0.9,3.9-1.3,6.3-1.3c3,0,5.8,0.7,8.3,2.2c2.5,1.5,4.4,3.4,5.8,6c1.4,2.5,2.2,5.4,2.2,8.7
		c0,3.3-0.7,6.2-2.2,8.7c-1.5,2.5-3.5,4.5-6.2,6c-2.6,1.4-5.7,2.2-9.1,2.2c-3.4,0-6.4-0.7-8.9-2.2c-2.5-1.5-4.4-3.6-5.8-6.3
		c-1.4-2.8-2.1-6-2.1-9.8V3.4z M99.8,23.3c-1.8-1.9-4.2-2.9-7-2.9c-2.9,0-5.2,1-7.1,2.9c-1.8,1.9-2.8,4.4-2.8,7.5
		c0,3.1,0.9,5.6,2.8,7.5c1.8,1.9,4.2,2.9,7.1,2.9c2.9,0,5.2-1,7-2.9c1.8-1.9,2.7-4.4,2.7-7.5C102.6,27.7,101.7,25.2,99.8,23.3z"/>
	<path class="st0" d="M115.5,3.4c0-1.1,0.4-1.9,1.1-2.5c0.7-0.6,1.7-0.9,2.8-0.9c0.6,0,1.2,0.1,1.8,0.2c0.6,0.1,1.1,0.3,1.5,0.5
		v18.2c1.2-1.5,2.7-2.7,4.5-3.6c1.8-0.9,3.9-1.3,6.3-1.3c3,0,5.8,0.7,8.3,2.2c2.5,1.5,4.4,3.4,5.8,6c1.4,2.5,2.2,5.4,2.2,8.7
		c0,3.3-0.7,6.2-2.2,8.7c-1.5,2.5-3.5,4.5-6.2,6c-2.6,1.4-5.7,2.2-9.1,2.2c-3.4,0-6.4-0.7-8.9-2.2c-2.5-1.5-4.4-3.6-5.8-6.3
		c-1.4-2.8-2.1-6-2.1-9.8V3.4z M139.5,23.3c-1.8-1.9-4.2-2.9-7-2.9c-2.9,0-5.2,1-7.1,2.9c-1.8,1.9-2.8,4.4-2.8,7.5
		c0,3.1,0.9,5.6,2.8,7.5c1.8,1.9,4.2,2.9,7.1,2.9c2.9,0,5.2-1,7-2.9c1.8-1.9,2.7-4.4,2.7-7.5C142.2,27.7,141.3,25.2,139.5,23.3z"/>
	<path class="st0" d="M163.1,46.8h-7.2V3.4c0-1.1,0.4-1.9,1.1-2.5c0.7-0.6,1.7-0.9,2.8-0.9c0.6,0,1.2,0.1,1.8,0.2
		c0.6,0.1,1.1,0.3,1.5,0.5V46.8z"/>
	<path class="st0" d="M186.1,47.7c-3.3,0-6.3-0.7-8.9-2.1c-2.6-1.4-4.6-3.3-6-5.8c-1.4-2.5-2.2-5.4-2.2-8.7c0-3.3,0.7-6.3,2.2-8.9
		c1.5-2.6,3.5-4.6,6.1-6c2.6-1.5,5.6-2.2,8.9-2.2c4.1,0,7.4,0.9,9.9,2.8c2.5,1.9,3.8,4.5,3.8,7.7c0,3.3-1.5,5.8-4.4,7.4
		c-2.9,1.7-7.6,2.5-14,2.5c-0.6,0-1.3,0-2.2,0c-0.9,0-1.7-0.1-2.6-0.1c0.3,2.2,1.5,4,3.4,5.3c1.9,1.3,4.3,2,7.3,2
		c3.2,0,6.1-0.7,8.6-2.2l2.7,5.1c-0.9,0.6-2.1,1.1-3.5,1.7c-1.4,0.5-2.9,0.9-4.5,1.2C189.2,47.5,187.6,47.7,186.1,47.7z M186.2,19.6
		c-2.8,0-5.1,0.9-6.9,2.7c-1.8,1.8-2.7,4.2-2.8,7.1c0.7,0,1.5,0.1,2.3,0.1c0.8,0,1.9,0,3.2,0c7.3,0,11-1.7,11-5
		c0-1.5-0.6-2.7-1.9-3.5C189.8,20,188.2,19.6,186.2,19.6z"/>
</g>
<path class="st0" d="M32.1,22.2c-1.4-2.5-3.4-4.5-5.8-6C23.8,14.8,21.1,14,18,14c-2.3,0-4.4,0.4-6.3,1.3c-1.8,0.9-3.4,2.1-4.5,3.6
	V0.7C6.9,0.5,6.3,0.3,5.7,0.2C5.1,0.1,4.5,0,3.9,0C2.7,0,1.8,0.3,1.1,0.9C0.4,1.4,0,2.3,0,3.4v26c0,3.8,0.7,7.1,2.1,9.8
	c1.4,2.8,3.3,4.9,5.8,6.3c2.5,1.5,5.5,2.2,8.9,2.2c3.5,0,6.5-0.7,9.1-2.2c2.6-1.4,4.7-3.4,6.2-6c1.5-2.5,2.2-5.4,2.2-8.7
	C34.3,27.6,33.6,24.7,32.1,22.2z M27.7,32.9c-1.7,7.3-9.4,9.3-14.6,6.8c0,0-1.3,1.6-4.4,1.3c0,0,1.9-1.5,1.8-2.9c0,0-5-4.2-2-11.5
	s10.2-5.7,12.5-5.1S29.4,25.6,27.7,32.9z"/>
</svg>
