<?xml version="1.0" encoding="utf-8"?>
<!-- Generator: Adobe Illustrator 25.4.1, SVG Export Plug-In . SVG Version: 6.00 Build 0)  -->
<svg version="1.1" id="Layer_1" xmlns="http://www.w3.org/2000/svg" xmlns:xlink="http://www.w3.org/1999/xlink" x="0px" y="0px"
	 viewBox="0 0 100 23.8" style="enable-background:new 0 0 100 23.8;" xml:space="preserve">
<style type="text/css">
	.st0{fill:#00ACED;}
</style>
<g>
	<path class="st0" d="M34.5,23.3c-1.1,0.1-2.3,0.3-3.6,0.4c-1.3,0.1-2.4,0.1-3.5,0.1c-2.6,0-4.6-0.4-6-1.2c-1.4-0.8-2.1-2.2-2.1-4
		c0-1.7,0.6-2.9,1.8-3.8c1.2-0.9,3.1-1.3,5.8-1.3c0.6,0,1.3,0,2.1,0.1c0.8,0,1.4,0.1,1.8,0.2c0-1.3-0.4-2.2-1.2-2.8
		c-0.8-0.6-2-0.9-3.5-0.9c-1,0-1.9,0.1-2.7,0.3c-0.8,0.2-1.4,0.5-1.8,0.8c-0.2-0.2-0.4-0.4-0.6-0.7c-0.2-0.3-0.3-0.6-0.3-1
		c0-0.7,0.4-1.3,1.3-1.7C23.1,7.2,24.4,7,26.1,7c2.8,0,4.9,0.6,6.3,1.7c1.4,1.1,2.1,2.8,2.1,5.1V23.3z M24.1,20.6
		c0.7,0.4,1.9,0.6,3.4,0.6c0.6,0,1.3,0,1.9-0.1c0.7-0.1,1.2-0.1,1.5-0.2v-4.6c-0.5-0.1-1.1-0.2-1.8-0.2c-0.8-0.1-1.4-0.1-2-0.1
		c-1.5,0-2.6,0.2-3.2,0.7c-0.6,0.5-0.9,1.1-0.9,2C23,19.6,23.4,20.2,24.1,20.6z"/>
	<path class="st0" d="M37.9,1.7c0-0.5,0.2-1,0.5-1.3C38.8,0.1,39.3,0,39.8,0c0.3,0,0.6,0,0.9,0.1c0.3,0.1,0.6,0.1,0.8,0.3v9.1
		c0.6-0.8,1.3-1.4,2.3-1.8c0.9-0.4,2-0.7,3.1-0.7c1.5,0,2.9,0.4,4.1,1.1c1.2,0.7,2.2,1.7,2.9,3c0.7,1.3,1.1,2.7,1.1,4.3
		c0,1.6-0.4,3.1-1.1,4.3c-0.7,1.3-1.8,2.3-3.1,3c-1.3,0.7-2.8,1.1-4.6,1.1c-1.7,0-3.2-0.4-4.4-1.1c-1.2-0.7-2.2-1.8-2.9-3.2
		c-0.7-1.4-1-3-1-4.9V1.7z M49.9,11.6c-0.9-1-2.1-1.4-3.5-1.4c-1.4,0-2.6,0.5-3.5,1.4c-0.9,1-1.4,2.2-1.4,3.7c0,1.5,0.5,2.8,1.4,3.7
		c0.9,1,2.1,1.4,3.5,1.4c1.4,0,2.6-0.5,3.5-1.4c0.9-1,1.4-2.2,1.4-3.7C51.3,13.8,50.8,12.6,49.9,11.6z"/>
	<path class="st0" d="M57.7,1.7c0-0.5,0.2-1,0.5-1.3C58.6,0.1,59.1,0,59.7,0c0.3,0,0.6,0,0.9,0.1c0.3,0.1,0.6,0.1,0.8,0.3v9.1
		c0.6-0.8,1.3-1.4,2.3-1.8c0.9-0.4,2-0.7,3.1-0.7c1.5,0,2.9,0.4,4.1,1.1c1.2,0.7,2.2,1.7,2.9,3c0.7,1.3,1.1,2.7,1.1,4.3
		c0,1.6-0.4,3.1-1.1,4.3C73,21,72,22,70.7,22.8c-1.3,0.7-2.8,1.1-4.6,1.1c-1.7,0-3.2-0.4-4.4-1.1c-1.2-0.7-2.2-1.8-2.9-3.2
		c-0.7-1.4-1-3-1-4.9V1.7z M69.8,11.6c-0.9-1-2.1-1.4-3.5-1.4c-1.4,0-2.6,0.5-3.5,1.4c-0.9,1-1.4,2.2-1.4,3.7c0,1.5,0.5,2.8,1.4,3.7
		c0.9,1,2.1,1.4,3.5,1.4c1.4,0,2.6-0.5,3.5-1.4c0.9-1,1.4-2.2,1.4-3.7C71.1,13.8,70.7,12.6,69.8,11.6z"/>
	<path class="st0" d="M81.5,23.4h-3.6V1.7c0-0.5,0.2-1,0.5-1.3C78.8,0.1,79.3,0,79.8,0c0.3,0,0.6,0,0.9,0.1c0.3,0.1,0.6,0.1,0.8,0.3
		V23.4z"/>
	<path class="st0" d="M93,23.8c-1.7,0-3.1-0.3-4.4-1c-1.3-0.7-2.3-1.7-3-2.9c-0.7-1.2-1.1-2.7-1.1-4.3c0-1.7,0.4-3.1,1.1-4.4
		c0.7-1.3,1.8-2.3,3.1-3C90,7.4,91.5,7,93.2,7c2,0,3.7,0.5,4.9,1.4c1.3,0.9,1.9,2.2,1.9,3.9c0,1.7-0.7,2.9-2.2,3.7
		c-1.5,0.8-3.8,1.2-7,1.2c-0.3,0-0.7,0-1.1,0c-0.4,0-0.9,0-1.3,0c0.2,1.1,0.7,2,1.7,2.6c1,0.7,2.2,1,3.6,1c1.6,0,3-0.4,4.3-1.1
		l1.3,2.5c-0.5,0.3-1,0.6-1.7,0.8c-0.7,0.3-1.4,0.4-2.3,0.6C94.6,23.8,93.8,23.8,93,23.8z M93.1,9.8c-1.4,0-2.5,0.4-3.4,1.3
		c-0.9,0.9-1.4,2.1-1.4,3.5c0.4,0,0.7,0,1.1,0c0.4,0,0.9,0,1.6,0c3.7,0,5.5-0.8,5.5-2.5c0-0.7-0.3-1.3-0.9-1.8
		C94.9,10,94.1,9.8,93.1,9.8z"/>
</g>
<path class="st0" d="M16.1,11.1c-0.7-1.3-1.7-2.3-2.9-3C11.9,7.4,10.5,7,9,7C7.8,7,6.8,7.2,5.9,7.7C5,8.1,4.2,8.7,3.6,9.5V0.3
	C3.4,0.2,3.2,0.2,2.9,0.1C2.5,0,2.2,0,1.9,0c-0.6,0-1,0.1-1.4,0.4C0.2,0.7,0,1.1,0,1.7v13c0,1.9,0.3,3.5,1,4.9
	C1.7,21,2.7,22,3.9,22.7c1.2,0.7,2.7,1.1,4.4,1.1c1.7,0,3.3-0.4,4.6-1.1c1.3-0.7,2.3-1.7,3.1-3c0.7-1.3,1.1-2.7,1.1-4.3
	C17.1,13.8,16.8,12.4,16.1,11.1z M13.9,16.4c-0.9,3.6-4.7,4.7-7.3,3.4c0,0-0.6,0.8-2.2,0.6c0,0,1-0.8,0.9-1.4c0,0-2.5-2.1-1-5.8
	s5.1-2.9,6.3-2.5S14.7,12.8,13.9,16.4z"/>
</svg>
